# xmcd CD database file
#
# Track frame offsets:
#	150
#	22110
#	39705
#	61275
#
# Disc length: 1048 seconds
#
# Revision: 0
# Processed by: cddbd v1.5.1PL0 Copyright (c) Steve Scherf et al.
# Submitted via: CDex 1.40Beta9
#
DISCID=31041604
DTITLE=Splash Candy - ONLY LOVE
DYEAR=2005
DGENRE=J-Pop
TTITLE0=ONLY LOVE
TTITLE1=瀬戸際マジック
TTITLE2=ONLY LOVE(instrumental)
TTITLE3=瀬戸際マジック(instrumental)
EXTD=YEAR: 2005/02/02
EXTT0=
EXTT1=
EXTT2=
EXTT3=
PLAYORDER=
